<svg width="68" height="20" viewBox="0 0 68 20" fill="none" xmlns="http://www.w3.org/2000/svg">
<path d="M0.164773 15H10.9318V12.7912H3.43892L10.8892 2.09517V0.454545H0.122159V2.66335H7.62216L0.164773 13.3594V15ZM16.5071 15.2202C18.2188 15.2202 19.2415 14.4176 19.7102 13.5014H19.7955V15H22.267V7.69886C22.267 4.81534 19.9162 3.94886 17.8352 3.94886C15.5412 3.94886 13.7798 4.97159 13.2116 6.96023L15.6122 7.30114C15.8679 6.5554 16.5923 5.91619 17.8494 5.91619C19.0426 5.91619 19.696 6.52699 19.696 7.59943V7.64205C19.696 8.38068 18.9219 8.41619 16.9972 8.62216C14.8807 8.84943 12.8565 9.48153 12.8565 11.9389C12.8565 14.0838 14.4261 15.2202 16.5071 15.2202ZM17.1747 13.331C16.1023 13.331 15.3352 12.8409 15.3352 11.8963C15.3352 10.9091 16.1946 10.4972 17.3452 10.3338C18.0199 10.2415 19.3693 10.071 19.7031 9.80114V11.0866C19.7031 12.3011 18.723 13.331 17.1747 13.331ZM24.8523 19.0909H27.4233V13.2812H27.5298C27.9347 14.0767 28.7798 15.1918 30.6548 15.1918C33.2259 15.1918 35.1506 13.1534 35.1506 9.55966C35.1506 5.9233 33.169 3.94886 30.6477 3.94886C28.723 3.94886 27.9205 5.10653 27.5298 5.89489H27.3807V4.09091H24.8523V19.0909ZM27.3736 9.54545C27.3736 7.42898 28.2827 6.05824 29.9375 6.05824C31.6491 6.05824 32.5298 7.5142 32.5298 9.54545C32.5298 11.5909 31.6349 13.0824 29.9375 13.0824C28.2969 13.0824 27.3736 11.6619 27.3736 9.54545ZM37.3523 19.0909H39.9233V13.2812H40.0298C40.4347 14.0767 41.2798 15.1918 43.1548 15.1918C45.7259 15.1918 47.6506 13.1534 47.6506 9.55966C47.6506 5.9233 45.669 3.94886 43.1477 3.94886C41.223 3.94886 40.4205 5.10653 40.0298 5.89489H39.8807V4.09091H37.3523V19.0909ZM39.8736 9.54545C39.8736 7.42898 40.7827 6.05824 42.4375 6.05824C44.1491 6.05824 45.0298 7.5142 45.0298 9.54545C45.0298 11.5909 44.1349 13.0824 42.4375 13.0824C40.7969 13.0824 39.8736 11.6619 39.8736 9.54545ZM54.6818 15.2131C57.2244 15.2131 58.9716 13.9702 59.4261 12.0739L57.0256 11.804C56.6776 12.7273 55.8253 13.2102 54.7173 13.2102C53.0554 13.2102 51.9545 12.1165 51.9332 10.2486H59.5327V9.46023C59.5327 5.6321 57.2315 3.94886 54.5469 3.94886C51.4219 3.94886 49.3835 6.2429 49.3835 9.60938C49.3835 13.0327 51.3935 15.2131 54.6818 15.2131ZM51.9403 8.51562C52.0185 7.12358 53.0483 5.9517 54.5824 5.9517C56.0597 5.9517 57.054 7.03125 57.0682 8.51562H51.9403ZM61.7077 15H64.2788V8.58665C64.2788 7.2017 65.3228 6.22159 66.7362 6.22159C67.1694 6.22159 67.7092 6.29972 67.9293 6.37074V4.00568C67.695 3.96307 67.2901 3.93466 67.006 3.93466C65.756 3.93466 64.712 4.64489 64.3143 5.90909H64.2006V4.09091H61.7077V15Z" fill="#2C384F"/>
</svg>
